<svg width="960" height="750"><line class="link" x1="295.074811681793" y1="413.54753522700514" x2="316.22933225504715" y2="260.44212535465584"></line><line class="link" x1="295.074811681793" y1="413.54753522700514" x2="247.5426003656469" y2="269.64957913559556"></line><line class="link" x1="295.074811681793" y1="413.54753522700514" x2="353.22784454044125" y2="550.8414777056597"></line><line class="link" x1="295.074811681793" y1="413.54753522700514" x2="148.51014050033558" y2="366.60720648134895"></line><line class="link" x1="416.1326366864553" y1="514.7499897570278" x2="295.074811681793" y2="413.54753522700514"></line><line class="link" x1="416.1326366864553" y1="514.7499897570278" x2="300.86386285904507" y2="622.0377608366865"></line><line class="link" x1="416.1326366864553" y1="514.7499897570278" x2="542.2020071171627" y2="429.36745276397187"></line><line class="link" x1="416.1326366864553" y1="514.7499897570278" x2="278.87029645039433" y2="441.947337341048"></line><line class="link" x1="416.1326366864553" y1="514.7499897570278" x2="266.5771080640917" y2="467.9141615002165"></line><line class="link" x1="416.1326366864553" y1="514.7499897570278" x2="431.0272514557705" y2="364.8146583940855"></line><line class="link" x1="416.1326366864553" y1="514.7499897570278" x2="510.5139341022" y2="641.6139497940769"></line><line class="link" x1="416.1326366864553" y1="514.7499897570278" x2="319.65533773290423" y2="395.35313225599964"></line><line class="link" x1="416.1326366864553" y1="514.7499897570278" x2="321.5903276307291" y2="640.392683441612"></line><line class="link" x1="416.1326366864553" y1="514.7499897570278" x2="421.5263009785476" y2="671.8835027829127"></line><line class="link" x1="416.1326366864553" y1="514.7499897570278" x2="517.1435017482215" y2="402.94990449457185"></line><line class="link" x1="416.1326366864553" y1="514.7499897570278" x2="527.9941531007564" y2="626.6831758224429"></line><line class="link" x1="416.1326366864553" y1="514.7499897570278" x2="260.0844982260854" y2="495.2602120314969"></line><line class="link" x1="416.1326366864553" y1="514.7499897570278" x2="469.7949123860022" y2="663.0888527536214"></line><line class="link" x1="416.1326366864553" y1="514.7499897570278" x2="395.53286375533617" y2="670.5227405496985"></line><line class="link" x1="416.1326366864553" y1="514.7499897570278" x2="564.0740551554519" y2="570.6491022040433"></line><line class="link" x1="416.1326366864553" y1="514.7499897570278" x2="558.8678126777843" y2="460.4803351278971"></line><line class="link" x1="416.1326366864553" y1="514.7499897570278" x2="258.52203214582465" y2="522.5227271563913"></line><line class="link" x1="416.1326366864553" y1="514.7499897570278" x2="283.6224835541604" y2="600.8600920669271"></line><line class="link" x1="416.1326366864553" y1="514.7499897570278" x2="446.67498969182077" y2="669.3529093098045"></line><line class="link" x1="416.1326366864553" y1="514.7499897570278" x2="369.91472795997163" y2="665.1112737448506"></line><line class="link" x1="416.1326366864553" y1="514.7499897570278" x2="542.2839099174838" y2="609.9793203716298"></line><line class="link" x1="416.1326366864553" y1="514.7499897570278" x2="571.1436060035969" y2="521.7406127294398"></line><line class="link" x1="416.1326366864553" y1="514.7499897570278" x2="569.4157511981894" y2="547.753540795888"></line><line class="link" x1="416.1326366864553" y1="514.7499897570278" x2="262.09805660559414" y2="549.6490058435575"></line><line class="link" x1="416.1326366864553" y1="514.7499897570278" x2="270.462449559361" y2="576.0108095053649"></line><line class="link" x1="416.1326366864553" y1="514.7499897570278" x2="567.9094940071498" y2="492.43261332572865"></line><line class="link" x1="416.1326366864553" y1="514.7499897570278" x2="349.606631261689" y2="377.2881652827135"></line><line class="link" x1="416.1326366864553" y1="514.7499897570278" x2="491.4543750534634" y2="653.5409555186613"></line><line class="link" x1="416.1326366864553" y1="514.7499897570278" x2="387.8572805847137" y2="365.75290855964835"></line><line class="link" x1="416.1326366864553" y1="514.7499897570278" x2="554.3859977282578" y2="591.0472211711103"></line><line class="link" x1="416.1326366864553" y1="514.7499897570278" x2="345.13281610735265" y2="654.7920508801899"></line><line class="link" x1="644.5082421908842" y1="301.65858445837256" x2="651.1318143378578" y2="145.96430071821095"></line><line class="link" x1="644.5082421908842" y1="301.65858445837256" x2="785.78726992033" y2="240.65069607106"></line><line class="link" x1="644.5082421908842" y1="301.65858445837256" x2="525.8877245388558" y2="206.5246694701029"></line><line class="link" x1="644.5082421908842" y1="301.65858445837256" x2="597.3651664211515" y2="153.28376274571866"></line><line class="link" x1="644.5082421908842" y1="301.65858445837256" x2="502.82704665541723" y2="337.4743616532525"></line><line class="link" x1="644.5082421908842" y1="301.65858445837256" x2="703.118620716042" y2="446.7051267685182"></line><line class="link" x1="644.5082421908842" y1="301.65858445837256" x2="624.1705965844982" y2="147.11732496465353"></line><line class="link" x1="644.5082421908842" y1="301.65858445837256" x2="798.7382841845935" y2="299.7480380276648"></line><line class="link" x1="644.5082421908842" y1="301.65858445837256" x2="676.8479218786081" y2="453.54954853915643"></line><line class="link" x1="644.5082421908842" y1="301.65858445837256" x2="571.8548129261084" y2="164.87519619287647"></line><line class="link" x1="644.5082421908842" y1="301.65858445837256" x2="498.3393435971066" y2="267.4507567576128"></line><line class="link" x1="644.5082421908842" y1="301.65858445837256" x2="751.8047688720937" y2="190.8474621406413"></line><line class="link" x1="644.5082421908842" y1="301.65858445837256" x2="746.7849411380952" y2="420.3688781073057"></line><line class="link" x1="644.5082421908842" y1="301.65858445837256" x2="703.8606135867636" y2="158.48126919878902"></line><line class="link" x1="644.5082421908842" y1="301.65858445837256" x2="770.9678097097241" y2="213.86944047735076"></line><line class="link" x1="644.5082421908842" y1="301.65858445837256" x2="795.3936180625943" y2="270.31303053163725"></line><line class="link" x1="644.5082421908842" y1="301.65858445837256" x2="729.3175469677648" y2="172.02754860353863"></line><line class="link" x1="644.5082421908842" y1="301.65858445837256" x2="797.0844431463313" y2="328.0723077857915"></line><line class="link" x1="644.5082421908842" y1="301.65858445837256" x2="547.3637742016374" y2="181.759991812877"></line><line class="link" x1="644.5082421908842" y1="301.65858445837256" x2="726.3630982166051" y2="435.41043727006655"></line><line class="link" x1="644.5082421908842" y1="301.65858445837256" x2="645.0270854105231" y2="453.92077869168065"></line><line class="link" x1="644.5082421908842" y1="301.65858445837256" x2="764.7585170451368" y2="402.0315055103225"></line><line class="link" x1="644.5082421908842" y1="301.65858445837256" x2="677.8735553630823" y2="149.87942700645456"></line><line class="link" x1="644.5082421908842" y1="301.65858445837256" x2="779.2656893248658" y2="380.38578152792314"></line><line class="link" x1="644.5082421908842" y1="301.65858445837256" x2="790.4139521510493" y2="355.2825427547483"></line><line class="link" x1="377.4042096310074" y1="131.66639188448917" x2="230.71626794693674" y2="107.05658649295026"></line><line class="link" x1="377.4042096310074" y1="131.66639188448917" x2="232.73462499957174" y2="171.84203549475262"></line><line class="link" x1="377.4042096310074" y1="131.66639188448917" x2="426.67210959940763" y2="269.883275837335"></line><line class="link" x1="377.4042096310074" y1="131.66639188448917" x2="490.9905873098156" y2="221.9577411856407"></line><line class="link" x1="204.66974752660258" y1="337.0437140531522" x2="79.01447219687712" y2="257.61034150708736"></line><line class="link" x1="204.66974752660258" y1="337.0437140531522" x2="79.11086315020887" y2="423.52714742311446"></line><line class="link" x1="204.66974752660258" y1="337.0437140531522" x2="133.68958348405462" y2="205.11633247113812"></line><line class="link" x1="321.02068015756765" y1="132.87962129946342" x2="182.32464979243844" y2="77.57152167608882"></line><line class="link" x1="321.02068015756765" y1="132.87962129946342" x2="360.9753634757764" y2="-11.148951888623513"></line><line class="link" x1="321.02068015756765" y1="132.87962129946342" x2="410.84699893714287" y2="10.564379128170753"></line><line class="link" x1="321.02068015756765" y1="132.87962129946342" x2="282.864725708326" y2="-9.089521067429983"></line><line class="link" x1="321.02068015756765" y1="132.87962129946342" x2="442.47475329022785" y2="40.12175347344718"></line><line class="link" x1="321.02068015756765" y1="132.87962129946342" x2="199.29310792193118" y2="223.9796247661033"></line><line class="link" x1="321.02068015756765" y1="132.87962129946342" x2="463.56288534430837" y2="80.42156643767022"></line><line class="link" x1="352.7881205962783" y1="282.05042586087916" x2="377.4042096310074" y2="131.66639188448917"></line><line class="link" x1="352.7881205962783" y1="282.05042586087916" x2="204.66974752660258" y2="337.0437140531522"></line><line class="link" x1="352.7881205962783" y1="282.05042586087916" x2="321.02068015756765" y2="132.87962129946342"></line><line class="link" x1="492.3437206411831" y1="370.1980754816605" x2="416.1326366864553" y2="514.7499897570278"></line><line class="link" x1="492.3437206411831" y1="370.1980754816605" x2="644.5082421908842" y2="301.65858445837256"></line><line class="link" x1="492.3437206411831" y1="370.1980754816605" x2="352.7881205962783" y2="282.05042586087916"></line><g class="node" transform="translate(316.22933225504715,260.44212535465584)"><circle r="6.275348595894893" style="fill: rgb(253, 141, 60);"></circle><text dy=".35em"> Alexander Pielak @pieSliced</text></g><g class="node" transform="translate(247.5426003656469,269.64957913559556)"><circle r="6.275348595894893" style="fill: rgb(253, 141, 60);"></circle><text dy=".35em"> Tilley Harris @voistuk</text></g><g class="node" transform="translate(353.22784454044125,550.8414777056597)"><circle r="6.275348595894893" style="fill: rgb(253, 141, 60);"></circle><text dy=".35em"> Hannah Tucker @Tala703</text></g><g class="node" transform="translate(148.51014050033558,366.60720648134895)"><circle r="6.275348595894893" style="fill: rgb(253, 141, 60);"></circle><text dy=".35em"> Rafal Szulczewski @rafszul</text></g><g class="node" transform="translate(295.074811681793,413.54753522700514)"><circle r="10" style="fill: rgb(198, 219, 239);"></circle><text dy=".35em">Voist @voistUK</text></g><g class="node" transform="translate(300.86386285904507,622.0377608366865)"><circle r="6.275348595894893" style="fill: rgb(253, 141, 60);"></circle><text dy=".35em"> Andrew Moist @andyeo</text></g><g class="node" transform="translate(542.2020071171627,429.36745276397187)"><circle r="6.275348595894893" style="fill: rgb(253, 141, 60);"></circle><text dy=".35em"> Andy Hall</text></g><g class="node" transform="translate(278.87029645039433,441.947337341048)"><circle r="6.275348595894893" style="fill: rgb(253, 141, 60);"></circle><text dy=".35em"> Anita McDade</text></g><g class="node" transform="translate(266.5771080640917,467.9141615002165)"><circle r="6.275348595894893" style="fill: rgb(253, 141, 60);"></circle><text dy=".35em"> Charlotte Roach @Charli_Roach</text></g><g class="node" transform="translate(431.0272514557705,364.8146583940855)"><circle r="6.275348595894893" style="fill: rgb(253, 141, 60);"></circle><text dy=".35em"> Claire Ritchie</text></g><g class="node" transform="translate(510.5139341022,641.6139497940769)"><circle r="6.275348595894893" style="fill: rgb(253, 141, 60);"></circle><text dy=".35em"> Clare Yolita  Wallis @yolita22</text></g><g class="node" transform="translate(319.65533773290423,395.35313225599964)"><circle r="6.275348595894893" style="fill: rgb(253, 141, 60);"></circle><text dy=".35em"> Colin Ralph</text></g><g class="node" transform="translate(321.5903276307291,640.392683441612)"><circle r="6.275348595894893" style="fill: rgb(253, 141, 60);"></circle><text dy=".35em"> Coral Stanion-Nazeri @NewCorals</text></g><g class="node" transform="translate(421.5263009785476,671.8835027829127)"><circle r="6.275348595894893" style="fill: rgb(253, 141, 60);"></circle><text dy=".35em"> Fionn Travers-Smith @fionntsmith</text></g><g class="node" transform="translate(517.1435017482215,402.94990449457185)"><circle r="6.275348595894893" style="fill: rgb(253, 141, 60);"></circle><text dy=".35em"> Gloria Dada @seeds_greatness</text></g><g class="node" transform="translate(527.9941531007564,626.6831758224429)"><circle r="6.275348595894893" style="fill: rgb(253, 141, 60);"></circle><text dy=".35em"> Heather Ball</text></g><g class="node" transform="translate(260.0844982260854,495.2602120314969)"><circle r="6.275348595894893" style="fill: rgb(253, 141, 60);"></circle><text dy=".35em"> Ian Pleasance @MindingsIan</text></g><g class="node" transform="translate(469.7949123860022,663.0888527536214)"><circle r="6.275348595894893" style="fill: rgb(253, 141, 60);"></circle><text dy=".35em"> Jade Fortune</text></g><g class="node" transform="translate(395.53286375533617,670.5227405496985)"><circle r="6.275348595894893" style="fill: rgb(253, 141, 60);"></circle><text dy=".35em"> John Green</text></g><g class="node" transform="translate(564.0740551554519,570.6491022040433)"><circle r="6.275348595894893" style="fill: rgb(253, 141, 60);"></circle><text dy=".35em"> Jonny Britton @jonnybritton</text></g><g class="node" transform="translate(558.8678126777843,460.4803351278971)"><circle r="6.275348595894893" style="fill: rgb(253, 141, 60);"></circle><text dy=".35em"> Katrina Estien @seeds_greatness</text></g><g class="node" transform="translate(258.52203214582465,522.5227271563913)"><circle r="6.275348595894893" style="fill: rgb(253, 141, 60);"></circle><text dy=".35em"> Laura Willoughby @lcwilloughby</text></g><g class="node" transform="translate(283.6224835541604,600.8600920669271)"><circle r="6.275348595894893" style="fill: rgb(253, 141, 60);"></circle><text dy=".35em"> Lucy Knight @jargonautical</text></g><g class="node" transform="translate(446.67498969182077,669.3529093098045)"><circle r="6.275348595894893" style="fill: rgb(253, 141, 60);"></circle><text dy=".35em"> Martin Howitt @martinhowitt</text></g><g class="node" transform="translate(369.91472795997163,665.1112737448506)"><circle r="6.275348595894893" style="fill: rgb(253, 141, 60);"></circle><text dy=".35em"> Michael Ralph</text></g><g class="node" transform="translate(542.2839099174838,609.9793203716298)"><circle r="6.275348595894893" style="fill: rgb(253, 141, 60);"></circle><text dy=".35em"> Natasia Sadler-Moor @TheRubySadler</text></g><g class="node" transform="translate(571.1436060035969,521.7406127294398)"><circle r="6.275348595894893" style="fill: rgb(253, 141, 60);"></circle><text dy=".35em"> Nathalie Richards @charitymot</text></g><g class="node" transform="translate(569.4157511981894,547.753540795888)"><circle r="6.275348595894893" style="fill: rgb(253, 141, 60);"></circle><text dy=".35em"> Oluwaseun Oshinaike @SeunOshinaike</text></g><g class="node" transform="translate(262.09805660559414,549.6490058435575)"><circle r="6.275348595894893" style="fill: rgb(253, 141, 60);"></circle><text dy=".35em"> Owen Jarvis</text></g><g class="node" transform="translate(270.462449559361,576.0108095053649)"><circle r="6.275348595894893" style="fill: rgb(253, 141, 60);"></circle><text dy=".35em"> Paul Perkins @perk_i</text></g><g class="node" transform="translate(567.9094940071498,492.43261332572865)"><circle r="6.275348595894893" style="fill: rgb(253, 141, 60);"></circle><text dy=".35em"> Richard Blisset</text></g><g class="node" transform="translate(349.606631261689,377.2881652827135)"><circle r="6.275348595894893" style="fill: rgb(253, 141, 60);"></circle><text dy=".35em"> Salome Simoes @salomesimoes</text></g><g class="node" transform="translate(491.4543750534634,653.5409555186613)"><circle r="6.275348595894893" style="fill: rgb(253, 141, 60);"></circle><text dy=".35em"> Sam Cornick @Sam_Shift</text></g><g class="node" transform="translate(387.8572805847137,365.75290855964835)"><circle r="6.275348595894893" style="fill: rgb(253, 141, 60);"></circle><text dy=".35em"> Stuart Arnott @MindingsStu</text></g><g class="node" transform="translate(554.3859977282578,591.0472211711103)"><circle r="6.275348595894893" style="fill: rgb(253, 141, 60);"></circle><text dy=".35em"> The BB Group  (Jackie Ballard) @volunteerjackie</text></g><g class="node" transform="translate(345.13281610735265,654.7920508801899)"><circle r="6.275348595894893" style="fill: rgb(253, 141, 60);"></circle><text dy=".35em"> Zenobia Talati @ZenobiaTalati1</text></g><g class="node" transform="translate(416.1326366864553,514.7499897570278)"><circle r="15.811388300841898" style="fill: rgb(198, 219, 239);"></circle><text dy=".35em">founders</text></g><g class="node" transform="translate(651.1318143378578,145.96430071821095)"><circle r="6.275348595894893" style="fill: rgb(253, 141, 60);"></circle><text dy=".35em"> Kate Bagley</text></g><g class="node" transform="translate(785.78726992033,240.65069607106)"><circle r="6.275348595894893" style="fill: rgb(253, 141, 60);"></circle><text dy=".35em"> Brenton Caffin</text></g><g class="node" transform="translate(525.8877245388558,206.5246694701029)"><circle r="6.275348595894893" style="fill: rgb(253, 141, 60);"></circle><text dy=".35em"> Zoe Cunningham</text></g><g class="node" transform="translate(597.3651664211515,153.28376274571866)"><circle r="6.275348595894893" style="fill: rgb(253, 141, 60);"></circle><text dy=".35em"> Annajoy David</text></g><g class="node" transform="translate(502.82704665541723,337.4743616532525)"><circle r="6.275348595894893" style="fill: rgb(253, 141, 60);"></circle><text dy=".35em"> Julie Fisher</text></g><g class="node" transform="translate(703.118620716042,446.7051267685182)"><circle r="6.275348595894893" style="fill: rgb(253, 141, 60);"></circle><text dy=".35em"> Jonathan Flowers</text></g><g class="node" transform="translate(624.1705965844982,147.11732496465353)"><circle r="6.275348595894893" style="fill: rgb(253, 141, 60);"></circle><text dy=".35em"> Abigail Freeman</text></g><g class="node" transform="translate(798.7382841845935,299.7480380276648)"><circle r="6.275348595894893" style="fill: rgb(253, 141, 60);"></circle><text dy=".35em"> Mayhul Gondhea</text></g><g class="node" transform="translate(676.8479218786081,453.54954853915643)"><circle r="6.275348595894893" style="fill: rgb(253, 141, 60);"></circle><text dy=".35em"> Katharine Hibbert</text></g><g class="node" transform="translate(571.8548129261084,164.87519619287647)"><circle r="6.275348595894893" style="fill: rgb(253, 141, 60);"></circle><text dy=".35em"> Jayne Hilditch</text></g><g class="node" transform="translate(498.3393435971066,267.4507567576128)"><circle r="6.275348595894893" style="fill: rgb(253, 141, 60);"></circle><text dy=".35em"> Kieron Kirkland</text></g><g class="node" transform="translate(751.8047688720937,190.8474621406413)"><circle r="6.275348595894893" style="fill: rgb(253, 141, 60);"></circle><text dy=".35em"> Sander Kristal</text></g><g class="node" transform="translate(746.7849411380952,420.3688781073057)"><circle r="6.275348595894893" style="fill: rgb(253, 141, 60);"></circle><text dy=".35em"> Neil McInroy</text></g><g class="node" transform="translate(703.8606135867636,158.48126919878902)"><circle r="6.275348595894893" style="fill: rgb(253, 141, 60);"></circle><text dy=".35em"> David McNulty</text></g><g class="node" transform="translate(770.9678097097241,213.86944047735076)"><circle r="6.275348595894893" style="fill: rgb(253, 141, 60);"></circle><text dy=".35em"> James Moed</text></g><g class="node" transform="translate(795.3936180625943,270.31303053163725)"><circle r="6.275348595894893" style="fill: rgb(253, 141, 60);"></circle><text dy=".35em"> Melani Oliver</text></g><g class="node" transform="translate(729.3175469677648,172.02754860353863)"><circle r="6.275348595894893" style="fill: rgb(253, 141, 60);"></circle><text dy=".35em"> Simon Parker</text></g><g class="node" transform="translate(797.0844431463313,328.0723077857915)"><circle r="6.275348595894893" style="fill: rgb(253, 141, 60);"></circle><text dy=".35em"> Daniel Shurlock</text></g><g class="node" transform="translate(547.3637742016374,181.759991812877)"><circle r="6.275348595894893" style="fill: rgb(253, 141, 60);"></circle><text dy=".35em"> Matt Skinner</text></g><g class="node" transform="translate(726.3630982166051,435.41043727006655)"><circle r="6.275348595894893" style="fill: rgb(253, 141, 60);"></circle><text dy=".35em"> Annika Small</text></g><g class="node" transform="translate(645.0270854105231,453.92077869168065)"><circle r="6.275348595894893" style="fill: rgb(253, 141, 60);"></circle><text dy=".35em"> Alex Soskin</text></g><g class="node" transform="translate(764.7585170451368,402.0315055103225)"><circle r="6.275348595894893" style="fill: rgb(253, 141, 60);"></circle><text dy=".35em"> Dan Sutch</text></g><g class="node" transform="translate(677.8735553630823,149.87942700645456)"><circle r="6.275348595894893" style="fill: rgb(253, 141, 60);"></circle><text dy=".35em"> Tom Tobia</text></g><g class="node" transform="translate(779.2656893248658,380.38578152792314)"><circle r="6.275348595894893" style="fill: rgb(253, 141, 60);"></circle><text dy=".35em"> Ben Unsworth</text></g><g class="node" transform="translate(790.4139521510493,355.2825427547483)"><circle r="6.275348595894893" style="fill: rgb(253, 141, 60);"></circle><text dy=".35em"> Nick Walkley</text></g><g class="node" transform="translate(644.5082421908842,301.65858445837256)"><circle r="15.811388300841898" style="fill: rgb(198, 219, 239);"></circle><text dy=".35em">mentors</text></g><g class="node" transform="translate(230.71626794693674,107.05658649295026)"><circle r="6.275348595894893" style="fill: rgb(253, 141, 60);"></circle><text dy=".35em">Dominic Campbell @dominiccampbell</text></g><g class="node" transform="translate(232.73462499957174,171.84203549475262)"><circle r="6.275348595894893" style="fill: rgb(253, 141, 60);"></circle><text dy=".35em">Carrie Bishop @carriebish</text></g><g class="node" transform="translate(426.67210959940763,269.883275837335)"><circle r="6.275348595894893" style="fill: rgb(253, 141, 60);"></circle><text dy=".35em">Lucy Watt @lucy_watt</text></g><g class="node" transform="translate(490.9905873098156,221.9577411856407)"><circle r="6.275348595894893" style="fill: rgb(253, 141, 60);"></circle><text dy=".35em">Marc Barto @marc_in_london</text></g><g class="node" transform="translate(377.4042096310074,131.66639188448917)"><circle r="12.24744871391589" style="fill: rgb(198, 219, 239);"></circle><text dy=".35em">FutureGov</text></g><g class="node" transform="translate(79.01447219687712,257.61034150708736)"><circle r="6.275348595894893" style="fill: rgb(253, 141, 60);"></circle><text dy=".35em">Dom Potter @DomPotter</text></g><g class="node" transform="translate(79.11086315020887,423.52714742311446)"><circle r="6.275348595894893" style="fill: rgb(253, 141, 60);"></circle><text dy=".35em">Alison Harvie @AlisonHarvie</text></g><g class="node" transform="translate(133.68958348405462,205.11633247113812)"><circle r="6.275348595894893" style="fill: rgb(253, 141, 60);"></circle><text dy=".35em">Daniel Idowu</text></g><g class="node" transform="translate(204.66974752660258,337.0437140531522)"><circle r="12.24744871391589" style="fill: rgb(198, 219, 239);"></circle><text dy=".35em">Hub Launchpad</text></g><g class="node" transform="translate(182.32464979243844,77.57152167608882)"><circle r="6.275348595894893" style="fill: rgb(253, 141, 60);"></circle><text dy=".35em">Simon Parker (Chair) – @SimonFParker</text></g><g class="node" transform="translate(360.9753634757764,-11.148951888623513)"><circle r="6.275348595894893" style="fill: rgb(253, 141, 60);"></circle><text dy=".35em">Nick Walkley</text></g><g class="node" transform="translate(410.84699893714287,10.564379128170753)"><circle r="6.275348595894893" style="fill: rgb(253, 141, 60);"></circle><text dy=".35em">Sarah Mitchell</text></g><g class="node" transform="translate(282.864725708326,-9.089521067429983)"><circle r="6.275348595894893" style="fill: rgb(253, 141, 60);"></circle><text dy=".35em">Jasmine Ali @jasmine_Ali</text></g><g class="node" transform="translate(442.47475329022785,40.12175347344718)"><circle r="6.275348595894893" style="fill: rgb(253, 141, 60);"></circle><text dy=".35em">Neil McInroy @nmcinroy</text></g><g class="node" transform="translate(199.29310792193118,223.9796247661033)"><circle r="6.275348595894893" style="fill: rgb(253, 141, 60);"></circle><text dy=".35em">Geeta Nanda</text></g><g class="node" transform="translate(463.56288534430837,80.42156643767022)"><circle r="6.275348595894893" style="fill: rgb(253, 141, 60);"></circle><text dy=".35em">Jonathan Flower @jonathanflowers</text></g><g class="node" transform="translate(321.02068015756765,132.87962129946342)"><circle r="12.24744871391589" style="fill: rgb(198, 219, 239);"></circle><text dy=".35em">Public Service Launchpad Team Advisory Board</text></g><g class="node" transform="translate(352.7881205962783,282.05042586087916)"><circle r="15.811388300841898" style="fill: rgb(198, 219, 239);"></circle><text dy=".35em">facilitators</text></g><g class="node" transform="translate(492.3437206411831,370.1980754816605)"><circle r="22.360679774997898" style="fill: rgb(198, 219, 239);"></circle><text dy=".35em">public service launchpad accelerator</text></g></svg>
